<svg enable-background="new 0 0 274.227 274.228" height="274.228" viewBox="0 0 274.227 274.228" width="274.227" xmlns="http://www.w3.org/2000/svg"><path d="m262.353 170.603c-.792-2.288-19.578-56.177-45.5-69.878-1.554-.818-3.18-1.652-4.847-2.501 7.783-26.139 10.299-47.996 5.188-66.953-4.981-18.491-22.059-32.213-38.856-31.219-14.794.865-25.295 12.718-28.097 31.701-.88 5.965-.834 11.387-.171 16.43-3.469 4.836-5.841 9.036-6.543 10.325l-130.384 207.641c-.997 1.579-2.231 3.547-.955 5.872l1.229 2.206h2.509c2.201 0 3.379-1.476 4.513-2.895l149.981-188.239c9.569 8.114 21.034 14.245 31.375 19.49-4.635 14.333-10.776 30.049-18.046 47.328-19.957 47.483-10.657 86.687 3.401 95.64.705.451 1.492.663 2.279.663 1.402 0 2.77-.694 3.583-1.968 1.248-1.973.673-4.604-1.305-5.852-9.896-6.302-18.662-41.109-.135-85.19 7.13-16.953 13.204-32.467 17.875-46.753 1.186.605 2.34 1.201 3.453 1.786 22.96 12.138 41.26 64.612 41.436 65.136.767 2.217 3.18 3.392 5.396 2.631 2.202-.777 3.383-3.19 2.621-5.401zm-108.367-90.54-8.353 6.902 3.299-10.325c.973-3.024 2.791-8.383 5.203-14.131 1.885 4.085 4.272 7.819 7.048 11.236-3.21 2.968-5.913 5.257-7.197 6.318zm13.359-12.282c-3.671-4.722-6.426-10.077-7.954-16.181 4.106-7.322 9.021-13.241 14.209-13.241 1.435 0 2.817.409 4.096 1.222 2.123 1.341 3.319 3.365 3.48 5.851.388 6.147-6.695 15.032-13.831 22.349zm36.988 26.564c-9.823-5.007-20.164-10.651-28.589-17.891 5.634-7.28 16.669-23.229 15.198-34.932-.513-4.096-2.517-7.482-5.789-9.792-2.714-1.9-5.686-2.874-8.839-2.874-6.551 0-12.868 4.339-18.201 9.704.083-1.802.232-3.646.518-5.571 2.2-14.934 9.569-23.855 20.205-24.477.378-.021.771-.037 1.16-.037 11.143 0 24.72 9.088 29.013 24.995 4.561 16.944 2.334 36.884-4.676 60.875z"/></svg>